# xmcd
#
# Track frame offsets:
#	150
#	19606
#	44693
#	65682
#	90479
#	102239
#	118011
#	135967
#	140765
#	159282
#
# Disc length: 2390 seconds
#
# Revision: 0
# Processed by: cddbd v1.5.2PL0 Copyright (c) Steve Scherf et al.
# Submitted via: EZCDAudioConverter 5.0.0.1
#
DISCID=8209540a
DTITLE=Huojuva Lato - L‰tt‰hattu
DYEAR=2016
DGENRE=Kantri
TTITLE0=Poika unelmoi (Savo)
TTITLE1=Mies Luoja tiet‰‰ mist‰
TTITLE2=Suomenhevonen
TTITLE3=Menneet polvet
TTITLE4=Taivaanrannan maalarit
TTITLE5=Hirviryijy
TTITLE6=Joensuu
TTITLE7=Vanha koira
TTITLE8=Viimeinen l‰tt‰hattu Lieksaan
TTITLE9=Pitk‰t kilometrit kotiin
EXTD=
EXTT0=
EXTT1=
EXTT2=
EXTT3=
EXTT4=
EXTT5=
EXTT6=
EXTT7=
EXTT8=
EXTT9=
PLAYORDER=
